<?xml version="1.0" encoding="utf-8"?><svg xmlns="http://www.w3.org/2000/svg" xmlns:xlink="http://www.w3.org/1999/xlink"><symbol viewBox="0 0 22 28" id="android"><title>android</title><path d="M7.703 7.547a.61.61 0 0 0 0-1.218c-.328 0-.594.28-.594.608s.265.61.593.61zm6.594 0c.328 0 .594-.28.594-.61s-.265-.608-.593-.608a.61.61 0 0 0 0 1.217zM1.61 10.422a1.6 1.6 0 0 1 1.593 1.594v6.72c0 .89-.703 1.608-1.594 1.608S0 19.624 0 18.734v-6.718c0-.875.72-1.594 1.61-1.594zm16.562.297v10.405a1.71 1.71 0 0 1-1.703 1.72h-1.173v3.546c0 .892-.72 1.61-1.61 1.61s-1.608-.72-1.608-1.61v-3.546H9.922v3.547c0 .892-.72 1.61-1.61 1.61a1.604 1.604 0 0 1-1.593-1.61l-.016-3.546H5.548a1.714 1.714 0 0 1-1.72-1.72V10.72h14.345zm-3.625-6.33c2.188 1.126 3.672 3.282 3.672 5.767H3.765c0-2.484 1.484-4.64 3.687-5.766l-1.11-2.046a.228.228 0 0 1 .08-.313c.108-.046.25-.015.312.095L7.86 4.188c.953-.422 2.016-.656 3.14-.656s2.19.234 3.142.656l1.125-2.063c.063-.11.203-.14.313-.094a.228.228 0 0 1 .078.314zM22 12.017v6.72c0 .89-.72 1.608-1.61 1.608a1.604 1.604 0 0 1-1.593-1.61v-6.718a1.59 1.59 0 0 1 1.594-1.594c.892 0 1.61.703 1.61 1.594z"/></symbol><symbol viewBox="0 0 22 28" id="apple"><title>apple</title><path d="M21.766 18.984c-.39 1.234-1.016 2.547-1.922 3.906-1.344 2.047-2.688 3.063-4.016 3.063-.53 0-1.25-.172-2.188-.5-.922-.344-1.72-.5-2.36-.5-.624 0-1.374.172-2.218.516-.86.358-1.547.53-2.063.53-1.61 0-3.157-1.36-4.704-4.047C.78 19.265 0 16.656 0 14.093c0-2.39.593-4.327 1.765-5.843C2.937 6.75 4.405 6 6.203 6c.766 0 1.672.156 2.766.47 1.077.312 1.796.468 2.155.468.453 0 1.203-.172 2.234-.53 1.03-.345 1.936-.532 2.702-.532 1.25 0 2.36.344 3.328 1.016.547.375 1.094.906 1.625 1.563-.812.688-1.406 1.297-1.78 1.844a5.554 5.554 0 0 0-1.017 3.233c0 1.28.36 2.453 1.078 3.484s1.547 1.687 2.47 1.97zM15.89.656c0 .64-.155 1.36-.452 2.125-.313.782-.797 1.5-1.453 2.157-.562.562-1.125.938-1.687 1.125-.36.11-.89.203-1.625.266.03-1.547.438-2.89 1.22-4.016S13.985.422 15.797 0c.03.14.063.25.078.344 0 .11.016.203.016.313z"/></symbol><symbol viewBox="0 0 26 28" id="calendar"><title>calendar</title><path d="M2 26h4.5v-4.5H2V26zm5.5 0h5v-4.5h-5V26zM2 20.5h4.5v-5H2v5zm5.5 0h5v-5h-5v5zm-5.5-6h4.5V10H2v4.5zM13.5 26h5v-4.5h-5V26zm-6-11.5h5V10h-5v4.5zm12 11.5H24v-4.5h-4.5V26zm-6-5.5h5v-5h-5v5zM8 7V2.5c0-.266-.234-.5-.5-.5h-1c-.266 0-.5.234-.5.5V7c0 .266.234.5.5.5h1c.266 0 .5-.234.5-.5zm11.5 13.5H24v-5h-4.5v5zm-6-6h5V10h-5v4.5zm6 0H24V10h-4.5v4.5zM20 7V2.5c0-.266-.234-.5-.5-.5h-1c-.266 0-.5.234-.5.5V7c0 .266.234.5.5.5h1c.266 0 .5-.234.5-.5zm6-1v20c0 1.094-.906 2-2 2H2c-1.094 0-2-.906-2-2V6c0-1.094.906-2 2-2h2V2.5C4 1.125 5.125 0 6.5 0h1C8.875 0 10 1.125 10 2.5V4h6V2.5C16 1.125 17.125 0 18.5 0h1C20.875 0 22 1.125 22 2.5V4h2c1.094 0 2 .906 2 2z"/></symbol><symbol viewBox="0 0 26 28" id="calendar-o"><title>calendar-o</title><path d="M2 26h22V10H2v16zM8 7V2.5c0-.28-.22-.5-.5-.5h-1c-.28 0-.5.22-.5.5V7c0 .28.22.5.5.5h1c.28 0 .5-.22.5-.5zm12 0V2.5c0-.28-.22-.5-.5-.5h-1c-.28 0-.5.22-.5.5V7c0 .28.22.5.5.5h1c.28 0 .5-.22.5-.5zm6-1v20c0 1.094-.906 2-2 2H2c-1.094 0-2-.906-2-2V6c0-1.094.906-2 2-2h2V2.5C4 1.125 5.125 0 6.5 0h1C8.875 0 10 1.125 10 2.5V4h6V2.5C16 1.125 17.125 0 18.5 0h1C20.875 0 22 1.125 22 2.5V4h2c1.094 0 2 .906 2 2z"/></symbol><symbol viewBox="0 0 30 28" id="camera"><title>camera</title><path d="M15 10.5c2.484 0 4.5 2.016 4.5 4.5s-2.016 4.5-4.5 4.5-4.5-2.016-4.5-4.5 2.016-4.5 4.5-4.5zM26 4c2.203 0 4 1.797 4 4v14c0 2.203-1.797 4-4 4H4c-2.203 0-4-1.797-4-4V8c0-2.203 1.797-4 4-4h3.5l.797-2.125C8.687.845 9.907 0 11 0h8c1.094 0 2.312.844 2.703 1.875L22.5 4H26zM15 22c3.86 0 7-3.14 7-7s-3.14-7-7-7-7 3.14-7 7 3.14 7 7 7z"/></symbol><symbol viewBox="0 0 30 28" id="chrome"><title>chrome</title><path d="M13.953 0A13.9 13.9 0 0 1 21 1.875a14.04 14.04 0 0 1 5.5 5.812l-11.594-.61c-3.28-.186-6.406 1.657-7.484 4.75L3.11 5.204C5.798 1.86 9.83.016 13.954 0zM2.28 6.328l5.267 10.36c1.484 2.92 4.625 4.702 7.875 4.093l-3.594 7.048C5.125 26.798 0 21 0 14c0-2.828.844-5.47 2.28-7.672zm24.782 2.64c2.453 6.313 0 13.657-6.062 17.157a13.962 13.962 0 0 1-7.78 1.86l6.327-9.735c1.797-2.766 1.766-6.375-.375-8.875zM14 9.282c2.61 0 4.72 2.11 4.72 4.72s-2.11 4.72-4.72 4.72S9.28 16.61 9.28 14 11.39 9.28 14 9.28z"/></symbol><symbol viewBox="0 0 24 28" id="clock"><title>clock</title><path d="M14 8.5v7c0 .28-.22.5-.5.5h-5a.494.494 0 0 1-.5-.5v-1c0-.28.22-.5.5-.5H12V8.5c0-.28.22-.5.5-.5h1c.28 0 .5.22.5.5zm6.5 5.5c0-4.688-3.813-8.5-8.5-8.5S3.5 9.313 3.5 14s3.813 8.5 8.5 8.5 8.5-3.813 8.5-8.5zm3.5 0c0 6.625-5.375 12-12 12S0 20.625 0 14 5.375 2 12 2s12 5.375 12 12z"/></symbol><symbol viewBox="0 0 28 28" id="css3"><title>css3</title><path d="M4.297 2h23.516l-4.156 20.828L11.094 27 .188 22.828l1.11-5.563h4.64l-.453 2.297 6.594 2.516 7.593-2.516 1.062-5.297H1.86l.906-4.64h18.89l.595-2.985H3.377z"/></symbol><symbol viewBox="0 0 28 28" id="dropbox"><title>dropbox</title><path d="M6.28 11.047L14 15.813l-5.344 4.453L1 15.282zM21.69 19.72v1.686l-7.656 4.578V26l-.016-.016L14 26v-.016l-7.64-4.578V19.72l2.296 1.5L14 16.78v-.03l.016.016.016-.016v.03l5.36 4.44zM8.656 1.843L14 6.297l-7.72 4.75L1 6.827zm13.063 9.203L27 15.28l-7.64 4.985L14 15.812zm-2.36-9.203L27 6.828l-5.28 4.22L14 6.297z"/></symbol><symbol viewBox="0 0 28 28" id="exclamation"><title>exclamation</title><path d="M16 21.484v-2.97a.508.508 0 0 0-.5-.515h-3c-.28 0-.5.233-.5.515v2.97c0 .28.22.515.5.515h3c.28 0 .5-.234.5-.516zm-.03-5.843l.28-7.17a.378.378 0 0 0-.156-.298C16 8.094 15.86 8 15.72 8H12.28c-.14 0-.28.094-.375.172-.11.078-.156.234-.156.328l.267 7.14c0 .204.234.36.53.36h2.892c.28 0 .515-.156.53-.36zm-.22-14.593l12 22A1.997 1.997 0 0 1 26 26H2c-.703 0-1.36-.375-1.72-.984s-.374-1.36-.03-1.97l12-22a1.988 1.988 0 0 1 3.5 0z"/></symbol><symbol viewBox="0 0 28 28" id="explorer"><title>explorer</title><path d="M28 14.64c0 .548-.03 1.095-.11 1.626H9.908c0 3.11 2.734 5.36 5.734 5.36 2.032 0 3.985-1 5.032-2.767h6.61a12.604 12.604 0 0 1-11.86 8.374c-1.922 0-3.844-.453-5.563-1.297-1.75.89-4.204 1.813-6.157 1.813C1.078 27.75 0 26.14 0 23.64c0-1.452.313-2.905.703-4.296.25-.906 1.25-2.75 1.703-3.578 1.922-3.484 4.453-6.828 7.422-9.47-2.39 1.032-4.984 3.626-6.672 5.532a12.585 12.585 0 0 1 12.266-9.766c.234 0 .47 0 .703.016C18.062 1.188 20.765.25 22.89.25c2.532 0 4.704.97 4.704 3.828 0 1.5-.578 3.125-1.172 4.47A12.605 12.605 0 0 1 28 14.64zm-1.094-10c0-1.75-1.25-2.827-2.97-2.827-1.312 0-2.796.53-3.968 1.094a12.69 12.69 0 0 1 6.14 5.11c.392-1.032.798-2.282.798-3.376zM2 23.97c0 1.812 1.078 2.796 2.86 2.796 1.39 0 2.937-.625 4.155-1.297A12.587 12.587 0 0 1 3.53 18.78c-.718 1.5-1.53 3.5-1.53 5.187zm7.875-11.142H21.25c-.11-3.016-2.766-5.187-5.688-5.187-2.938 0-5.578 2.173-5.688 5.188z"/></symbol><symbol viewBox="0 0 16 28" id="facebook"><title>facebook</title><path d="M14.984.187v4.125H12.53c-1.92 0-2.28.922-2.28 2.25v2.953h4.578l-.61 4.625H10.25V26H5.47V14.14H1.484V9.515H5.47V6.11C5.47 2.155 7.89 0 11.42 0c1.687 0 3.14.125 3.563.187z"/></symbol><symbol viewBox="0 0 27 28" id="firefox"><title>firefox</title><path d="M14.11 28c-6.032 0-10.83-3.53-13.032-8.578-2.47-5.61-.5-14.594 3.89-18.562L4.8 5.25c.218-.28 1.89-.358 2.155 0 .906-1.733 3.828-3.03 6.172-3.077-.89.75-2.953 3.484-2.78 4.875 1.14.36 2.89.375 3.812.438.28.156.234 1.11-.328 1.89 0 0-.735 1.017-2.72 1.376l.234 2.953-2.172-1.047c-.703 1.78.984 3.36 2.734 3.063 1.937-.327 2.625-1.593 3.984-1.515 1.344.078 1.875.828 1.703 1.53 0 0-.22.845-1.672.704-1.233 1.952-2.874 2.81-5.53 2.577 4.03 3.344 9.47.313 10.844-2.422 1.375-2.72.172-6.766-1.203-7.906 1.626.702 2.75 1.42 3.345 3 .313-3.5-1.297-7.47-4.172-9.798C24.61 3.47 27.906 7.658 28 14.345S22.078 28 14.11 28z"/></symbol><symbol viewBox="0 0 30 28" id="gears"><title>gears</title><path d="M14 14c0-2.203-1.797-4-4-4s-4 1.797-4 4 1.797 4 4 4 4-1.797 4-4zm12 8c0-1.094-.906-2-2-2s-2 .906-2 2c0 1.11.906 2 2 2 1.11 0 2-.906 2-2zm0-16c0-1.094-.906-2-2-2s-2 .906-2 2c0 1.11.906 2 2 2 1.11 0 2-.906 2-2zm-6 6.578v2.89c0 .204-.156.44-.36.47l-2.42.375a7.14 7.14 0 0 1-.5 1.188c.437.626.905 1.204 1.405 1.798a.536.536 0 0 1 .11.313.413.413 0 0 1-.11.298c-.313.422-2.063 2.328-2.516 2.328a.593.593 0 0 1-.33-.11l-1.796-1.405a6.693 6.693 0 0 1-1.203.485c-.077.797-.155 1.656-.358 2.422a.498.498 0 0 1-.47.375H8.548c-.22 0-.438-.172-.47-.39L7.72 21.22a7.765 7.765 0 0 1-1.173-.484l-1.844 1.39a.45.45 0 0 1-.313.11.505.505 0 0 1-.328-.125c-.406-.374-2.25-2.046-2.25-2.5 0-.108.047-.202.11-.296.452-.594.92-1.172 1.374-1.78a8.345 8.345 0 0 1-.547-1.282l-2.376-.375A.454.454 0 0 1 0 15.424v-2.89c0-.204.155-.44.358-.47l2.422-.375a7.14 7.14 0 0 1 .5-1.19 25.557 25.557 0 0 0-1.406-1.796c-.063-.094-.11-.203-.11-.313s.032-.218.11-.312c.313-.422 2.063-2.312 2.516-2.312.125 0 .234.047.328.11L6.515 7.28a8.194 8.194 0 0 1 1.203-.5c.078-.78.156-1.64.36-2.405A.498.498 0 0 1 8.545 4h2.906c.22 0 .438.172.47.39l.358 2.392c.406.125.797.297 1.172.484l1.844-1.39a.48.48 0 0 1 .313-.11c.124 0 .233.047.327.125.406.376 2.25 2.064 2.25 2.5a.538.538 0 0 1-.11.298c-.452.61-.92 1.172-1.358 1.78.202.423.39.845.53 1.282l2.375.36c.22.046.375.25.375.468zm10 8.328v2.188c0 .234-2.016.453-2.328.484a3.77 3.77 0 0 1-.47.812c.142.313.798 1.875.798 2.156 0 .047-.016.078-.063.11-.187.108-1.86 1.108-1.937 1.108-.203 0-1.375-1.563-1.53-1.797-.157.016-.314.03-.47.03s-.313-.015-.47-.03c-.155.234-1.327 1.797-1.53 1.797-.078 0-1.75-1-1.937-1.11a.135.135 0 0 1-.063-.108c0-.266.656-1.844.797-2.156a3.836 3.836 0 0 1-.47-.812c-.312-.03-2.327-.25-2.327-.484v-2.188c0-.234 2.016-.453 2.328-.484.125-.28.28-.562.47-.812-.142-.313-.798-1.89-.798-2.156 0-.03.016-.078.063-.11.187-.093 1.86-1.093 1.937-1.093.203 0 1.375 1.548 1.53 1.782.157-.016.314-.03.47-.03s.313.015.47.03c.437-.61.905-1.22 1.436-1.75l.094-.03c.078 0 1.75.983 1.937 1.093a.135.135 0 0 1 .063.11c0 .28-.656 1.843-.797 2.155.187.25.344.53.47.812.312.03 2.327.25 2.327.484zm0-16v2.187c0 .234-2.016.453-2.328.484a3.77 3.77 0 0 1-.47.812c.142.312.798 1.874.798 2.155 0 .047-.016.078-.063.11-.187.108-1.86 1.108-1.937 1.108-.203 0-1.375-1.563-1.53-1.797-.157.016-.314.03-.47.03s-.313-.015-.47-.03c-.155.234-1.327 1.797-1.53 1.797-.078 0-1.75-1-1.937-1.11a.135.135 0 0 1-.063-.108c0-.266.656-1.844.797-2.156a3.836 3.836 0 0 1-.47-.813c-.312-.03-2.327-.25-2.327-.484V4.905c0-.234 2.016-.453 2.328-.484.125-.28.28-.56.47-.81C20.655 3.295 20 1.717 20 1.452c0-.03.016-.078.063-.11C20.25 1.25 21.923.25 22 .25c.203 0 1.375 1.547 1.53 1.78.157-.015.314-.03.47-.03s.313.016.47.03c.437-.608.905-1.218 1.436-1.75L26 .25c.078 0 1.75.984 1.937 1.094a.135.135 0 0 1 .063.11c0 .28-.656 1.843-.797 2.155.187.25.344.53.47.81.312.032 2.327.25 2.327.485z"/></symbol><symbol viewBox="0 0 28 28" id="git"><title>git</title><path d="M9.297 23.656c0-1.375-1.516-1.563-2.578-1.563-1.11 0-2.47.234-2.47 1.625 0 1.406 1.61 1.578 2.688 1.578 1.14 0 2.36-.28 2.36-1.64zM8.375 11.86c0-1.173-.562-2.235-1.86-2.235-1.436 0-1.936.953-1.936 2.266 0 1.298.56 2.11 1.936 2.11 1.36 0 1.86-.875 1.86-2.14zm4.203-5.063v3.156c-.406.14-.812.25-1.234.344.156.422.25.86.25 1.313 0 2.64-1.625 4.656-4.22 5.14-.78.157-1.233.485-1.233 1.33 0 2.39 6.313.765 6.313 5.17 0 3.58-2.422 4.75-5.672 4.75-2.67 0-5.718-.89-5.718-4.108 0-1.875 1.14-2.953 2.844-3.516v-.063c-.72-.438-1.047-1.125-1.047-1.97 0-.796.17-1.78.983-2.14v-.063c-1.578-.53-2.61-2.703-2.61-4.28 0-2.923 2.267-5.064 5.157-5.064.97 0 1.937.25 2.78.734 1.173 0 2.33-.313 3.407-.734zm4.97 13.766h-3.47c.063-.703.063-1.39.063-2.094V8.952c0-.672.017-1.344-.062-2h3.47c-.08.64-.064 1.297-.064 1.937v9.578c0 .703 0 1.39.063 2.094zm9.39-3.47v3.064c-.828.453-1.78.61-2.72.61-3.343 0-3.733-2.642-3.733-5.36V9.923h.03V9.86c-.202 0-.39-.03-.577-.03-.313 0-.625.046-.922.093v-2.97h1.5V5.767c0-.47-.016-.938-.094-1.39h3.547c-.126.858-.095 1.718-.095 2.577h2.672v2.97c-.453 0-.906-.064-1.344-.064h-1.328v5.702c0 .922.203 2.047 1.36 2.047.608 0 1.202-.173 1.702-.517zm-9-14.796c0 1.172-.906 2.266-2.11 2.266-1.233 0-2.155-1.078-2.155-2.266C13.673 1.094 14.58 0 15.83 0c1.233 0 2.108 1.125 2.108 2.297z"/></symbol><symbol viewBox="0 0 24 28" id="github"><title>github</title><path d="M12 2c6.625 0 12 5.375 12 12 0 5.297-3.437 9.797-8.203 11.39-.61.11-.828-.265-.828-.577 0-.39.015-1.687.015-3.297 0-1.125-.375-1.844-.812-2.22 2.672-.296 5.484-1.312 5.484-5.92 0-1.314-.47-2.376-1.234-3.22.125-.313.53-1.53-.125-3.187-1-.314-3.297 1.233-3.297 1.233a11.28 11.28 0 0 0-6 0S6.705 6.656 5.705 6.97c-.656 1.655-.25 2.874-.125 3.186-.767.844-1.235 1.906-1.235 3.22 0 4.593 2.797 5.624 5.47 5.92-.345.314-.657.845-.767 1.61-.688.313-2.438.844-3.484-1-.656-1.14-1.844-1.234-1.844-1.234-1.172-.016-.078.734-.078.734.78.36 1.328 1.75 1.328 1.75.703 2.14 4.047 1.422 4.047 1.422 0 1 .016 1.937.016 2.234 0 .313-.22.688-.828.578C3.44 23.796.002 19.296.002 14c0-6.626 5.375-12 12-12zM4.547 19.234c.03-.063-.016-.14-.11-.187-.093-.03-.17-.016-.202.03-.03.064.016.142.11.188.077.047.17.03.202-.03zm.484.532c.064-.047.048-.156-.03-.25-.078-.078-.187-.11-.25-.047-.063.046-.047.155.03.25.08.077.188.108.25.046zm.47.703c.078-.064.078-.188 0-.298-.063-.11-.187-.156-.266-.094-.078.047-.078.172 0 .28s.203.157.266.11zm.656.655c.063-.063.03-.203-.063-.297-.11-.11-.25-.125-.313-.047-.078.064-.047.204.063.298.11.11.25.125.313.047zm.89.39c.032-.093-.062-.202-.202-.25-.125-.03-.266.017-.297.11s.063.203.203.234c.125.046.266 0 .297-.095zm.985.08c0-.11-.124-.188-.265-.173-.14 0-.25.078-.25.172 0 .11.11.187.266.172.142 0 .25-.078.25-.172zm.907-.157c-.016-.094-.14-.156-.28-.14-.142.03-.235.124-.22.233.016.095.14.157.28.126s.235-.125.22-.22z"/></symbol><symbol viewBox="0 0 36 28" id="google"><title>google</title><path d="M22.453 14.266c0 6.547-4.39 11.188-11 11.188C5.125 25.454 0 20.33 0 14S5.125 2.55 11.453 2.55c3.094 0 5.672 1.125 7.672 3l-3.11 2.984c-.843-.812-2.327-1.766-4.56-1.766C7.547 6.766 4.36 10 4.36 14s3.187 7.234 7.094 7.234c4.53 0 6.234-3.266 6.5-4.937h-6.5V12.36h10.813c.11.577.187 1.155.187 1.905zM36 12.36v3.28h-3.266v3.266h-3.28V15.64h-3.267v-3.28h3.266V9.092h3.28v3.266H36z"/></symbol><symbol viewBox="0 0 22 28" id="html5"><title>html5</title><path d="M17.656 9.328l.25-2.734H4.093l.734 8.344h9.562l-.345 3.563-3.078.83-3.063-.83-.203-2.187H4.968l.344 4.344 5.657 1.563h.063v-.016l5.61-1.547.78-8.5H7.357L7.123 9.33h10.53zM0 2h22l-2 22.47L10.97 27 2 24.47z"/></symbol><symbol viewBox="0 0 24 28" id="instagram"><title>instagram</title><path d="M16 14c0-2.203-1.797-4-4-4s-4 1.797-4 4 1.797 4 4 4 4-1.797 4-4zm2.156 0c0 3.406-2.75 6.156-6.156 6.156S5.844 17.406 5.844 14 8.594 7.844 12 7.844s6.156 2.75 6.156 6.156zm1.688-6.406c0 .797-.64 1.437-1.437 1.437s-1.437-.64-1.437-1.436.64-1.437 1.437-1.437 1.437.64 1.437 1.437zM12 4.156c-1.75 0-5.5-.14-7.078.484-.547.22-.953.484-1.375.906s-.688.828-.906 1.375c-.624 1.58-.483 5.33-.483 7.08s-.14 5.5.484 7.077c.22.547.485.953.907 1.375s.828.688 1.375.906c1.578.625 5.328.484 7.078.484s5.5.14 7.078-.484c.547-.22.953-.484 1.375-.906s.688-.828.906-1.375c.624-1.578.483-5.328.483-7.078s.14-5.5-.484-7.08c-.22-.546-.485-.952-.907-1.374s-.828-.688-1.375-.906C17.5 4.015 13.75 4.156 12 4.156zM24 14c0 1.656.016 3.297-.078 4.953-.094 1.922-.53 3.625-1.937 5.03s-3.11 1.845-5.03 1.938c-1.657.095-3.298.08-4.954.08s-3.296.015-4.952-.08c-1.922-.093-3.625-.53-5.03-1.936S.172 20.874.08 18.954C-.014 17.296.002 15.655.002 14s-.016-3.297.078-4.953c.094-1.922.53-3.625 1.937-5.03s3.11-1.845 5.03-1.938C8.705 1.984 10.346 2 12.002 2s3.298-.015 4.954.08c1.922.093 3.625.53 5.03 1.936s1.845 3.11 1.938 5.03C24.016 10.704 24 12.345 24 14z"/></symbol><symbol viewBox="0 0 25 28" id="linux"><title>linux</title><path d="M10.36 6.422c-.314.03-.204.313-.376.313-.156.016-.125-.344.375-.313zm1.36.22c-.157.046-.173-.25-.454-.173.453-.204.61.108.453.17zm-5.486 6.67c-.14-.047-.11.234-.25.453-.11.203-.39.36-.172.39.078.017.297-.17.39-.39.08-.266.157-.406.032-.453zm13.36 5.61c0-.28-.61-.547-.86-.656.423-1.406.235-1.97-.046-3.297-.22-1-1.14-2.36-1.86-2.782.188.156.532.61.892 1.297.625 1.172 1.25 2.906.844 4.344-.156.56-.53.64-.78.655-1.095.125-.454-1.313-.907-3.266-.516-2.19-1.047-2.345-1.172-2.517-.64-2.844-1.344-2.562-1.547-3.625-.172-.953.828-1.734-.53-2-.423-.078-1.017-.5-1.25-.53s-.36-1.58.515-1.626c.86-.063 1.016.97.86 1.375-.25.406.015.562.437.422.344-.11.125-1.017.203-1.142-.22-1.313-.766-1.5-1.328-1.61-2.156.173-1.188 2.548-1.406 2.33-.314-.33-1.22-.032-1.22-.235.016-1.22-.39-1.922-.953-1.937-.625-.016-.875.86-.906 1.36-.046.468.267 1.452.5 1.374.157-.047.423-.36.142-.344-.14 0-.36-.344-.39-.75-.017-.406.14-.812.67-.797.61.015.61 1.233.548 1.28a2.867 2.867 0 0 0-.484.453c-.203.328-.594.422-.75.562-.266.28-.328.594-.125.703.72.406.485.875 1.485.906.656.03 1.14-.094 1.594-.234.343-.11 1.452-.344 1.686-.75.11-.172.234-.172.313-.125.155.078.186.375-.204.47-.547.155-1.094.452-1.594.64-.484.203-.64.28-1.094.36-1.03.186-1.797-.376-1.11.296.235.22.454.36 1.048.345 1.313-.047 2.766-1.625 2.906-.922.03.156-.406.344-.75.516-1.22.593-2.078 1.78-2.86 1.374-.702-.375-1.405-2.11-1.39-1.328.016 1.203-1.578 2.266-.844 3.64-.484.126-1.563 2.423-1.72 3.61-.093.688.064 1.53-.108 2-.234.688-1.297-.656-.953-2.297.063-.282 0-.345-.078-.204-.423.766-.188 1.844.155 2.594.14.328.5.47.766.75.548.625 2.704 2.22 3.08 2.61.483.452.343 1.515-.657 1.624.516.97 1.016 1.062 1 2.64.594-.312.36-1 .11-1.436-.173-.313-.392-.453-.345-.53.03-.048.344-.314.516-.11.53.594 1.53.703 2.594.562 1.078-.125 2.234-.5 2.766-1.36.25-.405.422-.546.53-.468.126.063.173.344.157.812-.015.5-.218 1.016-.358 1.437-.14.485-.187.813.28.83.126-.876.376-1.735.44-2.61.077-1-.642-2.844.14-3.766.203-.25.453-.28.797-.28.046-1.25 1.968-1.157 2.608-.642zM9.78 6c.064-.39-.124-.672-.218-.703-.187-.047-.156.234-.063.203.062 0 .14.094.108.234-.03.187-.016.313.125.313.016 0 .047 0 .047-.047zm6.548 3.078c-.063-.297-.28-.187-.53-.344-.298-.187-.36-.5-.47-.39-.328.358.406 1.108.72 1.17.186.032.327-.218.28-.437zm-2.78-3.328c.015-.375-.314-.562-.392-.547-.203.016-.14.11-.047.14.124.032.25.25.28.485 0 .03.156-.03.156-.078zm.843-3.64c.017-.08-.186-.173-.327-.282-.125-.125-.25-.234-.375-.234-.313.03-.156.36-.203.516-.063.172-.297.313-.14.438.14.11.233-.172.53-.28.078-.032.438.015.516-.157zm8.83 20.953c1.92 1.188-.72 2.172-1.86 2.75-.89.453-2.078 1.453-2.516 1.875-.328.313-1.687.47-2.453.078-.89-.453-.42-1.172-1.796-1.22-.688-.015-1.36-.015-2.03-.015-.595.017-1.19.048-1.798.064-2.063.047-2.266 1.375-3.594 1.328-.906-.03-2.047-.75-4.016-1.156-1.375-.28-2.703-.36-2.984-.97s.344-1.296.39-1.89C.61 23.11-.03 22.03.44 21.626c.406-.36 1.266-.095 1.828-.407.594-.345.844-.61.844-1.345.22.75-.016 1.36-.5 1.656-.297.188-.844.282-1.297.235-.36-.03-.578.016-.672.156-.14.173-.093.485.08.892s.374.672.343 1.172c-.016.5-.578 1.094-.484 1.516.03.156.186.297.577.406.625.172 1.766.344 2.875.61 1.234.312 2.516.874 3.313.765 2.375-.327 1.016-2.874.64-3.483-2.015-3.156-3.343-5.22-4.405-4.406-.266.22-.28-.53-.266-.827.047-1.03.562-1.406.875-2.203.593-1.516 1.046-3.25 1.952-4.14.672-.876 1.734-2.298 1.937-3.048-.173-1.625-.22-3.344-.25-4.844-.032-1.61.218-3.016 2.03-4C10.298.094 10.876 0 11.485 0c1.078-.016 2.28.297 3.047.86 1.22.905 1.984 2.827 1.89 4.202-.062 1.078.126 2.188.47 3.344.406 1.36 1.047 2.312 2.078 3.406 1.234 1.313 2.203 3.89 2.484 5.53.25 1.532-.094 2.485-.422 2.532-.5.078-.812 1.656-2.375 1.594-1-.047-1.094-.64-1.375-1.156-.453-.797-.906-.547-1.078.297-.094.42-.03 1.046.11 1.515.28.984.186 1.906.015 3.047-.33 2.156 1.515 2.562 2.75 1.53 1.218-1.015 1.483-1.17 3.015-1.702 2.328-.797 1.547-1.5.297-1.922-1.125-.375-1.172-2.266-.766-2.625.094 2.03 1.156 2.328 1.594 2.61z"/></symbol><symbol viewBox="0 0 28 28" id="mail"><title>mail</title><path d="M28 11.094V23.5c0 1.375-1.125 2.5-2.5 2.5h-23A2.507 2.507 0 0 1 0 23.5V11.094c.47.516 1 .97 1.578 1.36 2.594 1.765 5.22 3.53 7.766 5.39 1.313.97 2.938 2.156 4.64 2.156h.032c1.703 0 3.328-1.188 4.64-2.156 2.548-1.844 5.173-3.625 7.782-5.39A9.278 9.278 0 0 0 28 11.093zM28 6.5c0 1.75-1.297 3.328-2.672 4.28-2.438 1.688-4.89 3.376-7.313 5.08-1.016.702-2.734 2.14-4 2.14h-.03c-1.267 0-2.985-1.437-4-2.14-2.423-1.704-4.876-3.392-7.298-5.08C1.577 10.03 0 8.266 0 6.844 0 5.313.826 4 2.5 4h23C26.857 4 28 5.123 28 6.5z"/></symbol><symbol viewBox="0 0 28 28" id="opera"><title>opera</title><path d="M23.328 3.563a10.068 10.068 0 0 0-5.61-1.72c-3.327 0-6.265 1.704-8.327 4.267-1.5 1.875-2.546 4.53-2.624 7.562v.656c.078 3.03 1.125 5.688 2.625 7.562 2.064 2.562 5 4.266 8.33 4.266 2.046 0 3.968-.625 5.608-1.72A13.922 13.922 0 0 1 14 28c-.22 0-.453 0-.672-.016C5.906 27.64 0 21.514 0 14 0 6.266 6.266 0 14 0h.047a13.98 13.98 0 0 1 9.28 3.563zM28 14c0 4.078-1.75 7.734-4.53 10.297a6.653 6.653 0 0 1-3.47.984c-1.437 0-2.797-.468-3.984-1.312 3.172-1.156 5.516-5.172 5.516-9.97 0-4.78-2.328-8.796-5.5-9.968 1.188-.828 2.53-1.297 3.97-1.297 1.265 0 2.452.36 3.53 1.016A13.963 13.963 0 0 1 28.002 14z"/></symbol><symbol viewBox="0 0 22 28" id="phone"><title>phone</title><path d="M22 19.375c0 .562-.25 1.656-.484 2.172-.328.766-1.203 1.266-1.906 1.656-.922.5-1.86.797-2.906.797-1.453 0-2.766-.594-4.094-1.078a14.627 14.627 0 0 1-2.734-1.297c-2.656-1.64-5.86-4.844-7.5-7.5A14.627 14.627 0 0 1 1.08 11.39C.594 10.064 0 8.75 0 7.298 0 6.25.3 5.313.8 4.39c.39-.702.89-1.577 1.656-1.905C2.97 2.25 4.064 2 4.626 2c.11 0 .22 0 .328.048.328.11.672.875.828 1.188.5.89.984 1.797 1.5 2.672.25.406.72.906.72 1.39 0 .954-2.83 2.345-2.83 3.188 0 .422.392.97.61 1.344 1.578 2.844 3.547 4.813 6.39 6.39.376.22.923.61 1.345.61.844 0 2.234-2.828 3.187-2.828.484 0 .984.47 1.39.72.876.515 1.782 1 2.673 1.5.313.155 1.078.5 1.188.827.047.108.047.218.047.327z"/></symbol><symbol viewBox="0 0 30 28" id="pic"><title>pic</title><path d="M10 9a3 3 0 0 1-6 0 3 3 0 0 1 6 0zm16 6v7H4v-3l5-5 2.5 2.5 8-8zm1.5-11h-25c-.266 0-.5.234-.5.5v19c0 .266.234.5.5.5h25c.266 0 .5-.234.5-.5v-19c0-.266-.234-.5-.5-.5zm2.5.5v19c0 1.375-1.125 2.5-2.5 2.5h-25A2.507 2.507 0 0 1 0 23.5v-19C0 3.125 1.125 2 2.5 2h25C28.875 2 30 3.125 30 4.5z"/></symbol><symbol viewBox="0 0 22 28" id="rss"><title>rss</title><path d="M6 21a3 3 0 0 1-6 0 3 3 0 0 1 6 0zm8 1.922c.016.28-.078.547-.266.75A.95.95 0 0 1 13 24h-2.11a.986.986 0 0 1-.983-.906 9.997 9.997 0 0 0-9-9A.987.987 0 0 1 0 13.11V11c0-.28.11-.546.33-.733A.958.958 0 0 1 1 10h.08a14.035 14.035 0 0 1 8.827 4.095A14.035 14.035 0 0 1 14 22.923zm8 .03a.95.95 0 0 1-.28.735A.958.958 0 0 1 21 24h-2.234a.995.995 0 0 1-1-.938C17.25 13.984 10.016 6.75.938 6.218A.992.992 0 0 1 0 5.234V3c0-.28.11-.53.313-.72A.972.972 0 0 1 1 2h.048a21.995 21.995 0 0 1 14.484 6.47 21.997 21.997 0 0 1 6.47 14.483z"/></symbol><symbol viewBox="0 0 28 28" id="safari"><title>safari</title><path d="M14.828 13.953c0 .516-.36 1-.906 1-.516 0-1-.375-1-.906 0-.516.375-1 .922-1 .5 0 .984.36.984.906zm.234.906l5.47-9.08c-.735.69-7.58 6.985-7.767 7.314l-5.453 9.063c.72-.672 7.578-7 7.75-7.297zm10.11-.86c0 2.047-.562 4.062-1.625 5.797-.156-.078-.812-.547-.938-.547a.207.207 0 0 0-.204.203c0 .203.734.578.922.688a11.23 11.23 0 0 1-6.656 4.704l-.25-1.047c-.016-.14-.11-.156-.234-.156-.11 0-.172.157-.156.235l.25 1.062c-.75.156-1.516.234-2.28.234-2.048 0-4.063-.577-5.813-1.64.093-.156.687-1.016.687-1.14a.207.207 0 0 0-.203-.204c-.22 0-.688.938-.828 1.125a11.24 11.24 0 0 1-4.72-6.75l1.08-.233c.124-.03.155-.125.155-.234s-.155-.172-.25-.156l-1.06.234A11.222 11.222 0 0 1 2.83 14c0-2.095.594-4.157 1.703-5.923.156.094.906.61 1.03.61.11 0 .204-.08.204-.188 0-.22-.828-.642-1.016-.767 1.595-2.328 4.017-4 6.767-4.625l.234 1.047c.032.125.126.156.235.156s.172-.155.156-.25l-.233-1.03A11.745 11.745 0 0 1 14 2.827a11.2 11.2 0 0 1 5.923 1.703c-.11.156-.61.89-.61 1.016 0 .11.08.203.188.203.22 0 .642-.813.75-1a11.165 11.165 0 0 1 4.61 6.67l-.875.188c-.14.03-.156.125-.156.25 0 .11.155.172.233.156l.89-.203c.142.72.22 1.454.22 2.188zm1.328 0c0-6.906-5.594-12.5-12.5-12.5S1.5 7.094 1.5 14 7.094 26.5 14 26.5 26.5 20.906 26.5 14zm1.5 0c0 7.734-6.266 14-14 14S0 21.734 0 14 6.266 0 14 0s14 6.266 14 14z"/></symbol><symbol viewBox="0 0 24 28" id="skype"><title>skype</title><path d="M18.328 16.61c0-2.72-2.64-3.657-4.86-4.157l-1.624-.375c-1.188-.28-2.078-.484-2.078-1.39 0-.83.875-1.204 2.25-1.204 2.453 0 2.5 1.797 4.016 1.797 1.016 0 1.625-.796 1.625-1.702 0-1.797-2.984-2.97-5.938-2.97-2.704 0-5.845 1.173-5.845 4.345 0 2.625 1.75 3.563 4.03 4.11l2.282.56c1.39.345 2.25.5 2.25 1.5 0 .798-.89 1.407-2.266 1.407-2.89 0-3.046-2.406-4.718-2.406-1.094 0-1.578.78-1.578 1.64 0 1.923 2.938 3.485 6.453 3.485 2.938 0 6-1.47 6-4.642zM24 20c0 3.313-2.688 6-6 6a5.976 5.976 0 0 1-3.656-1.25c-.75.156-1.547.25-2.344.25-6.078 0-11-4.922-11-11 0-.797.094-1.594.25-2.344A5.978 5.978 0 0 1 0 8c0-3.313 2.688-6 6-6 1.375 0 2.64.47 3.656 1.25C10.406 3.094 11.203 3 12 3c6.078 0 11 4.922 11 11 0 .797-.094 1.594-.25 2.344A5.978 5.978 0 0 1 24 20z"/></symbol><symbol viewBox="0 0 24 28" id="stack-overflow"><title>stack-overflow</title><path d="M20.14 25.5H2.673V18h-2.5v10h22.47V18h-2.5v7.5zM5.423 17.313l.516-2.453 12.234 2.578-.516 2.438zm1.61-5.844l1.046-2.282 11.328 5.297-1.047 2.266zm3.14-5.564l1.594-1.922L21.36 12l-1.594 1.922zM16.375 0l7.453 10.016-2 1.5L14.375 1.5zM5.155 22.984V20.5h12.5v2.484h-12.5z"/></symbol><symbol viewBox="0 0 26 28" id="twitter"><title>twitter</title><path d="M25.312 6.375a10.85 10.85 0 0 1-2.53 2.61c.015.218.015.437.015.655 0 6.672-5.078 14.36-14.36 14.36-2.858 0-5.515-.83-7.75-2.267.407.047.798.063 1.22.063 2.36 0 4.53-.797 6.266-2.156a5.056 5.056 0 0 1-4.72-3.5c.314.047.626.078.954.078.453 0 .906-.063 1.328-.172a5.048 5.048 0 0 1-4.047-4.953v-.063a5.093 5.093 0 0 0 2.28.64A5.044 5.044 0 0 1 1.72 7.47c0-.938.25-1.797.69-2.547a14.344 14.344 0 0 0 10.405 5.282 5.708 5.708 0 0 1-.125-1.156A5.045 5.045 0 0 1 17.735 4a5.03 5.03 0 0 1 3.687 1.593 9.943 9.943 0 0 0 3.203-1.22 5.032 5.032 0 0 1-2.22 2.782c1.017-.11 2-.39 2.907-.78z"/></symbol><symbol viewBox="0 0 20 28" id="user"><title>user</title><path d="M20 21.86c0 2.28-1.5 4.14-3.328 4.14H3.328C1.5 26 0 24.14 0 21.86 0 17.75 1.016 13 5.11 13a6.98 6.98 0 0 0 9.78 0c4.095 0 5.11 4.75 5.11 8.86zM16 8c0 3.313-2.688 6-6 6s-6-2.688-6-6 2.688-6 6-6 6 2.688 6 6z"/></symbol><symbol viewBox="0 0 31 28" id="vk"><title>vk</title><path d="M29.953 8.125c.234.64-.5 2.14-2.344 4.594-3.032 4.03-3.36 3.655-.86 5.983 2.406 2.234 2.906 3.313 2.984 3.453 0 0 1 1.75-1.11 1.766l-4 .063c-.858.172-2-.61-2-.61-1.5-1.03-2.905-3.702-4-3.358 0 0-1.124.36-1.093 2.766.017.516-.233.797-.233.797s-.28.297-.828.344H14.67c-3.953.25-7.438-3.39-7.438-3.39S3.42 16.593.078 8.735c-.22-.516.016-.766.016-.766s.234-.297.89-.297l4.282-.03c.406.062.688.28.688.28s.25.172.375.5c.702 1.75 1.608 3.344 1.608 3.344 1.563 3.22 2.625 3.766 3.234 3.437 0 0 .797-.484.625-4.375-.063-1.407-.453-2.048-.453-2.048-.36-.484-1.03-.625-1.328-.672-.234-.03.156-.594.672-.844.766-.375 2.125-.39 3.734-.375 1.266.017 1.625.095 2.11.204 1.483.36.983 1.734.983 5.047 0 1.063-.203 2.548.562 3.032.328.22 1.14.03 3.14-3.375 0 0 .94-1.625 1.673-3.516.125-.343.39-.483.39-.483s.25-.14.595-.094l4.5-.03c1.36-.173 1.578.452 1.578.452z"/></symbol><symbol viewBox="0 0 26 28" id="windows"><title>windows</title><path d="M10.656 15.72v10.17L0 24.423V15.72h10.656zm0-11.61v10.296H0V5.578zM26 15.72V28l-14.172-1.953V15.72H26zM26 2v12.406H11.828V3.953z"/></symbol><symbol viewBox="0 0 28 28" id="youtube"><title>youtube</title><path d="M11.11 17.625l7.56-3.906-7.56-3.954v7.86zM14 4.155c5.89 0 9.797.282 9.797.282.547.063 1.75.063 2.812 1.188 0 0 .858.844 1.108 2.78.297 2.267.28 4.532.28 4.532v2.125s.017 2.266-.28 4.53c-.25 1.923-1.11 2.782-1.11 2.782-1.06 1.11-2.265 1.11-2.81 1.172 0 0-3.907.297-9.798.297-7.28-.063-9.516-.28-9.516-.28-.625-.11-2.03-.08-3.094-1.19 0 0-.86-.858-1.11-2.78-.296-2.266-.28-4.53-.28-4.53v-2.126s-.016-2.266.28-4.53c.25-1.938 1.11-2.782 1.11-2.782C2.452 4.5 3.656 4.5 4.202 4.437c0 0 3.906-.28 9.797-.28z"/></symbol></svg>