<svg xmlns="http://www.w3.org/2000/svg" width="151" height="58.217"><path d="M60.153 57.83c-.404-.618-.482-1.411-.586-5.997-.054-2.393-.187-5.81-.294-7.59-.244-4.034-.095-5.027.735-4.909.477.068.907 1.09 1.214 2.88.15.875.313 1.589.361 1.585.108-.008.58-.74 1.45-2.247.912-1.581 1.22-1.84 2.291-1.917 1.06-.077 1.826.262 2.805 1.242.899.898 1.35 1.87 1.715 3.685.284 1.42.456 1.985.456 1.504 0-.338 1.144-2.645 1.768-3.563 2.55-3.756 5.382-3.841 6.587-.198.245.74.273 1.423.273 6.677 0 3.219-.054 6.103-.119 6.41-.144.678-.457 1.018-.939 1.018-.72 0-.783-.348-.886-4.877-.21-9.228-.621-11.074-2.087-9.361-1.662 1.941-3.401 7.188-3.849 11.612-.092.908-.236 1.87-.32 2.14-.173.556-.6.847-1.038.708-.621-.197-.728-.638-.891-3.68-.276-5.14-.559-6.982-1.292-8.429-.514-1.015-1.517-2.368-1.755-2.368-.275 0-.912 1.036-1.921 3.122-.857 1.772-.972 2.134-1.324 4.155a60.84 60.84 0 0 1-.297 1.576c-.077.371-.185 1.823-.24 3.226-.056 1.403-.165 2.803-.242 3.111-.227.9-1.122 1.175-1.575.484zm-35.77-.556c-.964-.486-1.338-2.256-1.802-8.517-.518-7.004-1.085-10.802-1.659-11.11-.202-.107-.977-.064-2.65.149-6.423.817-7.43.863-8.095.368-.302-.225-.436-.47-.47-.854-.083-.975.162-1.05 6.365-1.98 1.972-.295 5.847-.913 8.612-1.373 4.044-.674 5.263-.825 6.233-.775 2.009.104 3.184.885 2.834 1.881-.26.738-.865.933-3.602 1.164-2.313.194-5.536.731-5.801.966-.062.054-.015.602.103 1.219.299 1.564.62 4.664 1.065 10.27.592 7.462.612 8.053.275 8.354-.404.36-.974.456-1.407.238zm95.845-.577c-.619-.36-.89-1.299-1.022-3.529a68.916 68.916 0 0 0-.355-3.91c-.23-1.775-.985-8.91-.985-9.298 0-.279-.488-.263-2.863.09-1.095.163-2.165.256-2.377.205-.572-.135-.912-.494-.912-.964 0-.853.895-1.306 3.67-1.859 1.063-.211 2.022-.459 2.132-.55.27-.224.257-2.45-.027-4.405-.28-1.934-.282-3.278-.005-3.814.4-.773 1.72-1.117 2.156-.56.216.275.286.718.704 4.447.217 1.938.42 3.55.452 3.582.032.031.888-.049 1.904-.178 1.977-.253 2.764-.183 3.287.29.987.894-.714 1.98-3.898 2.492l-1.105.177.098 1.883c.26 5.013.514 7.525 1.218 12.013.445 2.84.45 3.155.057 3.656-.266.337-.425.394-1.088.39-.428-.003-.896-.073-1.04-.158zm-32.47-.463c-.779-.378-.848-.844-1.633-11.078-.83-10.813-.859-11.335-.776-14.105.089-2.983.278-3.873.886-4.165.51-.246 1.134-.021 1.239.446.156.698.618 6.918 1.506 20.272.372 5.595.482 8.009.373 8.212-.296.554-.956.727-1.594.418zm-46.02-.27c-.482-.155-1.254-.531-1.715-.837-2.029-1.347-3.192-3.186-3.602-5.695-.473-2.895.212-4.955 2.378-7.146 2.12-2.147 3.564-2.787 5.903-2.619 2.803.202 3.983.64 5.259 1.952 1.005 1.033 1.506 2.042 1.506 3.033.001.877-.255 1.26-1.146 1.716-1.337.682-5.186 1.395-8.456 1.566-.908.047-1.938.121-2.288.164l-.638.077v.862c0 1.142.524 2.184 1.585 3.154 2.805 2.564 5.432 2.229 9.368-1.196 1.927-1.676 2.522-2.088 3.014-2.088 1.586 0-.625 3.672-3.313 5.503-1.038.706-2.406 1.354-3.41 1.614-1.247.323-3.333.295-4.445-.06zm2.453-10.431c2.328-.35 4.343-.783 4.586-.986.494-.41.132-.868-1.66-2.101-.69-.475-.855-.52-2.056-.568-1.881-.076-2.54.18-3.876 1.502-1.08 1.07-1.946 2.147-1.946 2.422 0 .198 2.881.042 4.952-.27zm90.956 10.428c-1.224-.44-2.111-1.015-3.112-2.016-1.646-1.645-2.401-3.827-2.277-6.576.06-1.313.123-1.578.619-2.58 1.029-2.082 3.618-4.44 5.477-4.986.737-.216 1.084-.226 2.737-.079 2.577.23 3.374.542 4.644 1.817 1.134 1.139 1.666 2.12 1.666 3.074 0 .806-.29 1.282-1.04 1.703-1.172.659-4.447 1.307-7.839 1.553-1.196.086-2.53.19-2.963.232l-.788.076v.562c0 1.25.414 2.115 1.554 3.247 1.313 1.306 2.21 1.767 3.593 1.847 1.784.103 3.614-.795 6.032-2.96 2.309-2.066 3.255-2.453 3.345-1.368.05.598-.582 1.763-1.643 3.03-1.254 1.497-3.668 3.005-5.597 3.495-1.273.324-3.407.29-4.408-.071zm1.255-10.278c2.592-.321 5.137-.801 5.649-1.066.612-.316.505-.596-.553-1.455-1.507-1.224-1.853-1.35-3.514-1.278-1.62.07-2.06.242-3.127 1.221-.918.842-2.136 2.316-2.136 2.584 0 .29 1.31.289 3.681-.005zm-38.14 10.269c-1.177-.206-2.413-.719-2.741-1.136-.399-.507-.666-1.886-.57-2.942.15-1.647 1.126-2.733 3.483-3.874 2.485-1.203 4.62-1.377 6.043-.493.418.26.9.516 1.072.57.297.095.313.046.313-.95 0-1.446-.27-3.278-.59-3.997-.429-.964-.786-1.193-1.8-1.153-1.18.046-2.249.343-4.656 1.29-2.42.952-2.88 1.067-3.317.834-.277-.149-.314-.267-.245-.777.155-1.163.767-1.525 4.981-2.95.99-.334 2.245-.653 2.788-.707 1.98-.199 3.471.626 4.346 2.403.557 1.132.727 2.571.744 6.312.006 1.32.07 3.272.143 4.336.085 1.24.08 2.076-.015 2.326-.396 1.045-1.351 1.391-1.903.689-.27-.342-.433-.871-.706-2.29l-.095-.49-.718.64c-2.03 1.81-4.539 2.712-6.558 2.359zm3.22-2.695c.687-.265 1.329-.587 1.426-.715.098-.128.61-.651 1.14-1.163 1.101-1.066 1.118-1.283.128-1.716-2.116-.926-5.228-.263-6.346 1.351-.358.516-.44.793-.443 1.478-.003.811.016.852.522 1.114.736.38 2.007.257 3.574-.349zm46.695-13.691c-1.293-.336-2.039-1.932-1.44-3.083.417-.8.93-1.132 1.854-1.197.718-.05.949 0 1.386.294.29.194.644.589.788.876.848 1.689-.734 3.59-2.588 3.11zm1.255-.469a1.796 1.796 0 0 0-.135-3.396c-1.115-.368-2.32.518-2.32 1.705 0 .723.283 1.2.955 1.61.56.341.84.357 1.5.081zm-1.705-1.744v-1.35h.646c.92 0 1.21.256 1.12.987-.05.397.018.77.209 1.151.276.553.276.563-.007.563-.17 0-.415-.215-.599-.526-.17-.288-.413-.525-.54-.525-.162 0-.23.154-.23.525 0 .426-.057.526-.3.526-.278 0-.3-.1-.3-1.35zm.963-.24c.294-.114.31-.45.026-.559-.263-.1-.39.02-.39.374 0 .305.022.315.364.184zM47.227 31.626c-.375-.375-.09-3.763.954-11.38.73-5.318.97-6.307 1.7-6.966.628-.569.688-.178.41 2.649-.256 2.593-.374 5.742-.222 5.894.045.045.58-.646 1.19-1.536 1.755-2.558 3.933-4.585 5.621-5.23.783-.298 1.321-.196 1.656.316.312.475.146.699-.906 1.225-1.737.87-3.437 2.584-5.256 5.299-1.16 1.73-1.83 3.203-2.86 6.28-.48 1.432-1.015 2.816-1.19 3.076-.344.512-.802.668-1.097.373zm-25.548-.51c-.223-.588-.178-1.879.147-4.192.162-1.156.472-3.823.687-5.927.216-2.105.521-4.84.679-6.078.158-1.238.288-2.4.29-2.584.002-.378.236-.39-2.587.122-2.066.374-2.513.322-2.513-.293 0-.77.717-1.157 3.25-1.755.874-.207 1.714-.443 1.867-.525.433-.231.703-1.443 1.104-4.952.411-3.594.573-4.253 1.154-4.684.874-.649.898-.12.259 5.705-.184 1.67-.29 3.08-.238 3.134.053.052.656-.02 1.34-.162 1.5-.311 2.642-.27 2.877.105.384.613-.45 1.127-2.979 1.837l-1.643.461-.413 2.771c-.647 4.348-1.14 8.3-1.557 12.45-.49 4.894-.504 4.951-1.217 4.951-.249 0-.406-.119-.507-.385zm44.266.078c-.24-.447-.214-2.046.059-3.745.126-.784.403-3.114.615-5.177.212-2.063.555-5.165.76-6.892.206-1.728.323-3.193.26-3.256-.063-.062-1.025.054-2.136.26-2.452.453-2.763.438-2.83-.137-.092-.808.494-1.159 2.943-1.765.94-.232 1.87-.528 2.067-.657.524-.343.763-1.367 1.185-5.065.394-3.45.576-4.146 1.187-4.547.83-.544.839-.412.296 4.838-.223 2.165-.36 3.984-.302 4.041.058.057.593-.01 1.19-.15 2.35-.55 3.744-.147 2.864.826-.214.236-2.235.963-3.953 1.421l-.525.14-.409 2.696a278.386 278.386 0 0 0-1.619 13.03c-.372 3.827-.499 4.35-1.076 4.417-.289.033-.452-.046-.576-.278zm-25.5-.734c-.086-.16-.156-1.075-.156-2.035v-1.744l-.819.885c-.903.976-2.46 2.084-3.77 2.684-.71.325-.997.376-1.771.314-1-.08-2.389-.677-2.55-1.095-.05-.134-.093-.81-.093-1.502 0-2.079.615-3.347 2.243-4.626 1.667-1.31 3.694-2.195 5.024-2.194.587 0 1.586.455 1.586.721 0 .126 1.21.975 1.277.896.103-.122.537-2.954.666-4.34.172-1.863.015-3.19-.43-3.635-.605-.604-2.286-.268-5.114 1.024-2.355 1.075-2.812 1.231-3.015 1.028-.282-.282.277-1.212.975-1.621 1.056-.619 4.967-2.16 5.814-2.292.441-.068 1.038-.076 1.325-.016 1.174.243 2.022 1.929 1.993 3.958-.008.578-.354 3.144-.768 5.702-.414 2.558-.794 4.99-.844 5.402-.186 1.528-.253 1.743-.701 2.254-.527.6-.657.634-.872.232zm-3.982-2.098c.976-.485 1.397-.814 2.25-1.76a50.898 50.898 0 0 0 1.332-1.518c.95-1.201-.704-2.478-2.885-2.227-2.12.244-4.034 2.032-4.527 4.231-.446 1.991 1.249 2.555 3.83 1.274zm-35.194.817c-.418-1.812-.353-3.024.227-4.21.44-.899 1.02-1.322 1.703-1.243.664.077.621.77-.115 1.854-.692 1.019-.793 1.757-.32 2.34.276.341.362.354 2.363.354 1.982 0 2.115-.02 2.954-.43.482-.238 1.267-.813 1.743-1.279.791-.774.886-.938 1.11-1.924.33-1.447.313-1.65-.167-2.128-.647-.644-2.427-1.63-3.392-1.88-1.143-.297-2.131-1.054-3.344-2.562-1.761-2.192-2.065-3.291-1.32-4.776 1.39-2.765 4.323-5.563 6.51-6.208 1.173-.346 4.115-.357 4.734-.018.994.544 1.726 1.676 1.726 2.67 0 .914-.315.926-1.243.048-1.054-.997-1.913-1.316-3.215-1.194-1.625.152-2.991.894-4.548 2.47-1.861 1.885-2.6 3.565-2.043 4.642.502.971 1.3 1.475 5.497 3.466 1.999.948 2.85 2.123 2.85 3.932 0 2.417-1.786 5.326-3.824 6.227-1.014.449-3.314.918-5.103 1.041-.743.051-1.598.129-1.9.172l-.55.079-.333-1.443z" fill="#040404"/></svg>