<?xml version="1.0" encoding="UTF-8" standalone="no"?>
<!-- Created with Inkscape (http://www.inkscape.org/) -->

<svg
   xmlns:dc="http://purl.org/dc/elements/1.1/"
   xmlns:cc="http://creativecommons.org/ns#"
   xmlns:rdf="http://www.w3.org/1999/02/22-rdf-syntax-ns#"
   xmlns:svg="http://www.w3.org/2000/svg"
   xmlns="http://www.w3.org/2000/svg"
   version="1.1"
   width="100"
   height="35.835884"
   id="svg3173">
  <metadata
     id="metadata3179">
    <rdf:RDF>
      <cc:Work
         rdf:about="">
        <dc:format>image/svg+xml</dc:format>
        <dc:type
           rdf:resource="http://purl.org/dc/dcmitype/StillImage" />
        <dc:title></dc:title>
      </cc:Work>
    </rdf:RDF>
  </metadata>
  <defs
     id="defs3177" />
  <path
     d="m 42.276313,35.32091 c -0.562894,-0.2621 -1.258654,-0.78492 -1.546132,-1.16182 -1.827651,-2.39617 -1.623363,-6.876 0.40118,-8.7975 1.300032,-1.23386 4.00123,-1.61123 5.620409,-0.78518 1.077475,0.54968 2.139428,1.82985 2.474554,2.98302 0.441998,1.52092 0.33653,4.14151 -0.21735,5.40053 -1.120659,2.54736 -4.093449,3.58984 -6.732661,2.36095 z m 3.153601,-2.33575 c 0.632279,-0.33839 1.009432,-1.50667 1.003154,-3.1074 -0.0063,-1.6029 -0.338244,-2.47422 -1.143697,-3.00197 -0.656596,-0.43022 -1.595396,-0.17706 -2.163091,0.58331 -0.454649,0.60895 -0.683503,2.74274 -0.435788,4.06317 0.258297,1.37686 1.580686,2.08303 2.739422,1.46289 z m 16.882098,2.52959 c -1.111909,-0.41278 -1.728013,-0.91748 -2.359336,-1.93272 -1.446797,-2.32663 -1.091164,-6.4004 0.711006,-8.14456 0.886368,-0.85784 1.984512,-1.26558 3.43097,-1.27393 2.846998,-0.0164 4.584769,1.97473 4.745639,5.43759 l 0.0604,1.30005 -3.462088,0.0548 -3.462088,0.0548 0.137303,0.44525 c 0.295789,0.95916 0.693748,1.49969 1.284201,1.74426 0.893747,0.3702 2.724751,0.14855 3.96513,-0.48 l 1.037524,-0.52575 0,1.37304 0,1.37304 -1.050038,0.35471 c -1.4312,0.48348 -4.023321,0.59638 -5.038619,0.21947 z m 3.488562,-7.30251 c 0,-0.90846 -0.786582,-1.69122 -1.699483,-1.69122 -0.59349,0 -0.87199,0.13509 -1.325967,0.64318 -0.316075,0.35375 -0.57468,0.86677 -0.57468,1.14004 0,0.49234 0.01638,0.49687 1.800065,0.49687 l 1.800065,0 0,-0.58887 z m 6.900251,7.46193 c -0.220008,-0.0567 -0.737526,-0.18982 -1.150041,-0.29571 l -0.750028,-0.19254 0,-1.31374 c 0,-1.17324 0.03743,-1.29818 0.350013,-1.16829 1.694964,0.70432 3.89292,0.92362 4.483989,0.44737 1.021819,-0.8233 0.385342,-1.63156 -1.604256,-2.03724 -2.731034,-0.55685 -3.517444,-1.42569 -3.371727,-3.72511 0.09853,-1.55483 0.490348,-2.25143 1.578669,-2.80665 0.908888,-0.46368 3.106737,-0.54603 4.859833,-0.18208 l 1.103748,0.22913 0,1.36666 0,1.36665 -1.050038,-0.40015 c -1.250175,-0.47643 -3.154609,-0.57268 -3.62395,-0.18317 -0.430465,0.35726 -0.416683,1.16091 0.02382,1.3887 0.192507,0.0995 1.041268,0.33247 1.886137,0.5176 1.667568,0.3654 2.715717,0.94595 3.108183,1.72157 0.137485,0.27171 0.251301,1.08822 0.252923,1.81448 0.0054,2.41202 -1.149482,3.42875 -3.984485,3.50789 -0.942026,0.0263 -1.892781,10e-4 -2.112789,-0.0554 z m -44.501618,-5.66426 0,-5.60896 1.500055,0 1.500054,0 0.001,0.75002 10e-4,0.75003 0.449025,-0.52995 c 0.577001,-0.68099 1.316996,-1.12748 1.949077,-1.176 1.302439,-0.1 1.810751,0.0275 2.490972,0.62473 1.117953,0.98158 1.309166,1.96403 1.309166,6.72649 l 0,4.07261 -1.450053,-0.0588 -1.450067,-0.0588 -0.100003,-3.92976 c -0.08907,-3.50013 -0.14166,-3.97573 -0.481016,-4.35016 -0.45156,-0.49824 -1.06158,-0.53839 -1.673015,-0.11013 -0.842534,0.59014 -0.942088,1.04598 -1.046086,4.78992 l -0.100003,3.60013 -1.450053,0.0588 -1.450053,0.0588 0,-5.60897 z m 25.724796,5.38455 c -0.813256,-0.2435 -1.491075,-0.94304 -1.723111,-1.77833 -0.109224,-0.39318 -0.199091,-2.04242 -0.199703,-3.66498 l -0.0012,-2.95011 -0.700026,0 -0.700025,0 0,-1.30005 0,-1.30004 0.700025,0 0.700026,0 0,-1.60006 0,-1.60006 1.500054,0 1.500055,0 0,1.60006 0,1.60006 1.509599,0 1.509596,0 -0.05954,1.25004 -0.05955,1.25005 -1.450053,0.0588 -1.450052,0.0588 0,2.78431 c 0,3.17165 0.0141,3.19839 1.686913,3.19839 l 0.913181,0 0,1.30005 0,1.30004 -1.550056,-0.0172 c -0.852531,-0.009 -1.809328,-0.0948 -2.126217,-0.1897 z m -32.525043,-4.29327 0,-2.10008 1.300047,0 1.300047,0 0,2.10008 0,2.10008 -1.300047,0 -1.300047,0 0,-2.10008 z M 8.3984878,27.63909 0.098186,22.87908 0.049093,21.08992 0,19.30076 8.3543926,14.55059 c 4.5949154,-2.6126 8.4230234,-4.75018 8.5069054,-4.75018 0.08388,0 0.126635,0.82782 0.09501,1.8396 l -0.05751,1.8396 -6.662347,3.73904 c -3.6642902,2.05647 -6.6636823,3.80589 -6.6653156,3.88759 -0.00164,0.0817 2.9964228,1.82415 6.6623466,3.8721 l 6.665316,3.72356 0.05751,1.84967 c 0.03163,1.01731 -0.01337,1.84919 -0.100003,1.8486 -0.08663,-6e-4 -3.892647,-2.14307 -8.4578132,-4.76108 z m 74.6452072,2.91246 0.05751,-1.84969 6.764619,-3.78452 c 4.48847,-2.51111 6.675661,-3.83817 6.500237,-3.94396 -0.145411,-0.0877 -3.18949,-1.80843 -6.76462,-3.82386 l -6.500236,-3.66442 -0.05751,-1.84234 c -0.03163,-1.01329 0.01112,-1.84235 0.09501,-1.84235 0.08388,0 3.911988,2.13758 8.506905,4.75018 L 100,19.30076 l -0.04909,1.7891 -0.04909,1.7891 -8.300301,4.76114 c -4.565166,2.61862 -8.371183,4.76113 -8.457814,4.76113 -0.08663,0 -0.131633,-0.83235 -0.100004,-1.84968 z m -61.354007,-5.5656 c -0.08004,-0.12951 -0.191192,-3.95925 -0.247009,-8.51053 l -0.101481,-8.27506 1.328928,0 1.328928,0 -0.02631,6.15022 c -0.01448,3.38262 -0.08197,7.18526 -0.150005,8.45031 l -0.123692,2.30008 -0.931916,0.0602 c -0.560429,0.0362 -0.989924,-0.0336 -1.07744,-0.17524 z m 8.8327,-8.86752 c -2.016004,-0.75032 -3.151783,-2.82926 -3.151783,-5.76906 0,-2.84986 0.869046,-4.64925 2.698016,-5.58634 0.973094,-0.49857 2.776575,-0.58683 4.080803,-0.19969 l 0.85003,0.25231 0,1.49273 0,1.49274 -0.747065,-0.4004 c -2.174519,-1.16548 -4.055915,0.19168 -4.051993,2.92292 0.004,2.78728 1.648276,4.09735 3.803738,3.03063 l 0.99532,-0.49258 0,1.43737 c 0,1.37238 -0.02486,1.44898 -0.55002,1.6944 -0.840058,0.39259 -3.021479,0.462 -3.927046,0.12497 z m 9.4022,6e-4 c -1.01916,-0.37941 -2.069002,-1.40174 -2.586313,-2.51854 -0.343376,-0.7413 -0.418829,-1.30568 -0.427827,-3.20011 -0.0095,-1.99138 0.05079,-2.43397 0.448862,-3.29763 0.896831,-1.94575 2.160251,-2.77163 4.252551,-2.77981 2.106776,-0.008 3.534426,1.02075 4.320591,3.11411 0.397064,1.0573 0.457225,4.29074 0.102424,5.50501 -0.307491,1.05235 -1.335081,2.41928 -2.197202,2.92278 -0.863782,0.50448 -2.887637,0.63595 -3.913086,0.25419 z m 2.533688,-2.72168 c 0.747067,-0.58764 1.002612,-1.58803 0.90086,-3.52662 -0.108248,-2.0624 -0.499304,-2.73667 -1.643263,-2.83338 -1.365064,-0.11541 -1.976246,0.89516 -1.976246,3.26766 0,1.78863 0.382252,2.89936 1.120551,3.25607 0.660602,0.31917 1.032661,0.28105 1.598098,-0.16373 z m 7.746829,2.65292 C 48.590379,15.2377 47.684482,12.77186 47.848338,9.63515 47.932838,8.01764 48.03571,7.59397 48.622876,6.44546 49.1858,5.34435 49.45586,5.04105 50.22444,4.64673 51.461485,4.01206 52.36867,4.1786 53.536056,5.25466 l 0.864104,0.7965 0,-3.02558 0,-3.02558 1.402319,0 1.402321,0 -0.05227,8.05029 -0.05227,8.05029 -1.350049,0.0591 -1.350049,0.0591 0,-0.84825 0,-0.84825 -0.671653,0.73327 c -1.080269,1.17938 -2.239365,1.44079 -3.523402,0.79464 z m 3.555848,-3.06138 C 54.51046,11.78874 54.487807,8.88813 53.719993,7.74461 53.158973,6.90906 52.178079,6.76329 51.48679,7.41272 c -0.919429,0.86376 -1.11119,3.73285 -0.355875,5.32456 0.515009,1.0853 2.019497,1.22923 2.630034,0.25161 z m 8.543326,3.10423 C 60.510988,15.40937 59.400678,13.55849 59.245262,10.99378 59.01942,7.26685 60.57211,4.71975 63.32116,4.30751 c 2.822027,-0.42319 4.909153,1.75945 5.204652,5.44284 l 0.132376,1.65006 -3.350558,0 -3.350559,0 0.135231,0.55002 c 0.376895,1.53293 1.530541,2.20711 3.173731,1.85471 0.56187,-0.1205 1.418354,-0.44085 1.903293,-0.71189 0.484942,-0.27103 0.91932,-0.49279 0.965285,-0.49279 0.04597,0 0.05713,0.64689 0.02481,1.43753 l -0.05876,1.43753 -1.10004,0.38811 c -1.463549,0.51635 -3.662203,0.62379 -4.696339,0.22949 z m 3.296288,-7.50274 c 0,-0.56641 -0.518081,-1.51589 -0.908993,-1.66589 -1.085133,-0.41641 -2.121319,0.18636 -2.481946,1.44379 l -0.181269,0.63205 1.786105,0 c 1.667189,0 1.786103,-0.0273 1.786103,-0.40995 z m 5.133521,7.47687 c -0.07334,-0.0733 -0.133339,-2.68343 -0.133339,-5.80021 l 0,-5.66687 1.400051,0 1.400051,0 0,0.83603 0,0.83603 0.703243,-0.82159 c 0.758452,-0.88608 1.823859,-1.36237 2.607499,-1.16569 0.468725,0.11764 0.489396,0.19115 0.489396,1.74048 0,1.45886 -0.03436,1.60435 -0.350013,1.48223 -1.302279,-0.50381 -2.396895,-0.1577 -2.991945,0.94603 -0.28432,0.52738 -0.362305,1.30141 -0.422827,4.19677 l -0.07421,3.55013 -1.247285,0 c -0.686007,0 -1.307288,-0.06 -1.380622,-0.13334 z"
     id="path3183"
     style="fill:#050505" />
</svg>
